<svg viewBox="0 0 173.33 178.17" fill="#fff" height="100%"><g><path d="M169.59,122,159.25,94.72h0c-.72-1.86-1-4.93-3.2-6.36L115.19,61.9s0,0,0-.05L105,35c-.58-1.55-1.54-5.69-3.46-7L63.65,3a3.59,3.59,0,0,0-4.77.62L27,39.24c-2.11,2.35.25,6.57.9,8.29l10.24,27L4.49,112.17c-1.78,2-.24,5.55.45,7.24l11,29.15a1.12,1.12,0,0,0,.44.54l40.81,26.48a1.12,1.12,0,0,0,1.46-.21S91,138.07,92,136.91a1.59,1.59,0,0,1,2.14-.37l39.94,25.92a1.12,1.12,0,0,0,1.46-.21l33.85-39.09A1.12,1.12,0,0,0,169.59,122ZM97.16,36.12,68.64,68.79a1.12,1.12,0,0,1-1.45.21L32.65,46.85a1.12,1.12,0,0,1-.24-1.7c9.4-10.5,19.77-22.2,29.27-32.82a1.13,1.13,0,0,1,1.47-.19c10,6.63,29.06,19.18,33.78,22.29A1.13,1.13,0,0,1,97.16,36.12ZM78.78,104.77,46.85,141.36a2.26,2.26,0,0,1-2.92.42l-33-21.16a2.26,2.26,0,0,1-.46-3.41C20.79,105.69,40,84.29,43.75,80.11a1.13,1.13,0,0,1,1.46-.19l33.1,21.48A2.25,2.25,0,0,1,78.78,104.77ZM123.06,129a1.12,1.12,0,0,1-1.45.21L82.23,103.93a1.79,1.79,0,0,1-.39-2.68l28-32.3a1.13,1.13,0,0,1,1.47-.21c4.23,2.74,33.94,22,40,25.91a1.12,1.12,0,0,1,.23,1.68Z"></path></g></svg>