<?xml version="1.0" standalone="no"?>
<!DOCTYPE svg PUBLIC "-//W3C//DTD SVG 20010904//EN"
 "http://www.w3.org/TR/2001/REC-SVG-20010904/DTD/svg10.dtd">
<svg version="1.0" xmlns="http://www.w3.org/2000/svg"
 width="260.000000pt" height="260.000000pt" viewBox="0 0 260.000000 260.000000"
 preserveAspectRatio="xMidYMid meet">
<metadata>
Created by potrace 1.11, written by Peter Selinger 2001-2013
</metadata>
<g transform="translate(0.000000,260.000000) scale(0.100000,-0.100000)"
fill="#000000" stroke="none">
<path d="M1180 2427 c-3 -3 -28 -7 -56 -11 -179 -21 -399 -123 -559 -260 -175
-150 -316 -375 -361 -577 -27 -119 -32 -177 -29 -304 4 -159 6 -177 41 -295
122 -410 466 -717 889 -794 94 -17 333 -15 410 4 28 6 59 13 69 16 42 8 125
39 201 74 225 104 417 295 528 523 53 108 69 154 93 262 20 93 27 312 13 400
-77 486 -439 857 -927 949 -67 13 -302 22 -312 13z m-350 -647 c33 -18 56 -48
69 -92 l11 -37 288 0 c158 0 308 0 334 0 l47 -1 -29 -52 -29 -53 -300 -5 -301
-5 148 -259 149 -258 -31 -53 c-23 -40 -34 -50 -42 -42 -11 11 -115 190 -273
469 l-66 117 -43 1 c-101 0 -168 85 -142 180 24 89 128 134 210 90z m1116 -21
c52 -50 61 -128 22 -185 -28 -41 -51 -55 -107 -63 -45 -6 -46 -7 -99 -96 -29
-50 -57 -99 -62 -110 -6 -11 -14 -27 -20 -35 -16 -25 -120 -202 -120 -205 0
-2 -36 -65 -79 -140 l-79 -137 25 -36 c65 -96 -23 -234 -139 -218 -75 11 -135
82 -130 154 5 59 69 132 116 132 12 0 97 144 408 682 36 63 38 70 28 108 -12
46 -8 80 17 122 44 75 155 89 219 27z"/>
</g>
</svg>
