<?xml version="1.0" encoding="utf-8"?>
<!-- Generator: Adobe Illustrator 21.1.0, SVG Export Plug-In . SVG Version: 6.00 Build 0)  -->
<svg version="1.1" id="Lager_1" xmlns="http://www.w3.org/2000/svg" xmlns:xlink="http://www.w3.org/1999/xlink" x="0px" y="0px"
	 viewBox="0 0 577 112" style="enable-background:new 0 0 577 112;" xml:space="preserve">
<style type="text/css">
	.st0{fill:#3FAF2A;}
	.st1{fill:#FFFFFF;}
	.st2{fill:#1A171B;}
</style>
<g>
	<g>
		<path class="st0" d="M138.2,106H9.4c-4.3,0-7.7-3.5-7.7-7.7V11.8C1.6,7.5,5.1,4,9.4,4h128.8c4.3,0,7.7,3.5,7.7,7.7v86.5
			C146,102.6,142.5,106,138.2,106z"/>
		<path class="st1" d="M112.8,53.8c2.8,0,5.3,0.5,7.6,2c3.2,2,5.1,5.4,6.3,8.7c1.8,4.9,0.5,10.9-2.4,15.2c-3,4.2-7.3,6.6-12.7,6.7
			c-4.5,0-9.1,0-13.4,0.1c-7.9,0.1-15.8,0.2-23.6,0.2c-8.4,0-16.5,0-24.7-0.1c-2.9,0-5.8-0.1-8.7-0.3c-0.9,0-1.9-0.1-3-0.2
			c-0.5,0-1.2-0.1-1.6-0.2c-7.1-2.2-12.2-7.5-14.5-14.5c-1-3.2-1.2-6.5-0.9-9.8c0.3-3.3,1.4-6.4,3.2-9.3c3.6-5.8,9.6-9,16.4-9.5
			c0.2-5,2.1-9.7,5.6-13.3c3.7-4.1,8.9-6.9,14.3-8.3C69.1,19,79,20,85.9,25.8c2,1.8,3.9,3.7,5.5,5.9c1.5,2.1,2.8,4.7,3.9,7l0.2,0.6
			l-1.1,0.5l-0.4-0.5c-3.5-5.4-9.1-9.3-15.4-10.9c-5.9-1.5-12.4-1.2-17.8,1.6c-3.2,1.7-5.7,4.1-7.4,7.1c-2.1,3.7-2.9,7.9-3,12v0.8
			L49.6,50c-4.5-0.9-8.8,0-12.1,3.1c-2.2,2-3.7,5-4.2,7.9c-0.6,3.3-0.1,6.6,1.5,9.5c2.3,4.5,7.8,7.1,12.9,7.2l62.3-0.4
			c2.4-0.4,4.5-1.9,5.7-4c1.1-2.4,1.2-5.2,0.1-7.7c-0.9-2.1-2.8-4.2-5.1-4.9c-2-0.6-4.2-0.3-6,0.7l-0.8,1.1l-1-0.6l0.2-0.5
			c2.4-5.3,1.6-8.5-3.1-12.1c-2.6-2-5.7-3.2-9.1-3c-6.2,0.5-11.7,5.6-15,10.5c-0.3,0.4-0.5,0.9-0.8,1.3L73.6,61l-1.2-0.5l0.2-0.6
			c1.2-3.5,2.5-7,4.7-10.1c2.4-3.6,5.6-6.1,9.7-7.9c3.9-1.6,8.3-2.1,12.4-1.1C106.1,42.5,110.7,47.5,112.8,53.8"/>
	</g>
	<g>
		<path class="st2" d="M500.1,40.2c0,2.1-0.9,3.1-2.6,3.1h-17.7c-1.9,0-2.9-1.1-2.9-3.5v-9.5c0-2.4,1.2-3.7,3.7-3.7h16.2
			c2.3,0,3.5,1.2,3.5,3.5v10.1H500.1z M507,17.5h-37.1c-5,0-8.5,2.8-8.5,6.7v21.5c0,4.2,3.2,6.9,7.6,6.9h38.4c4.4,0,7.6-2.3,7.6-6.3
			V24.2C515.2,20.1,511.8,17.5,507,17.5"/>
	</g>
	<g>
		<path class="st2" d="M262.4,40.2c0,2.1-0.8,3.1-2.6,3.1H242c-1.9,0-2.9-1.1-2.9-3.5v-9.5c0-2.4,1.2-3.7,3.7-3.7H259
			c2.3,0,3.5,1.2,3.5,3.5v10.1H262.4z M269.3,17.5h-37.1c-5,0-8.5,2.8-8.5,6.7v21.5c0,4.2,3.2,6.9,7.6,6.9h38.4
			c4.4,0,7.6-2.3,7.6-6.3V24.2C277.6,20.1,274.1,17.5,269.3,17.5"/>
	</g>
	<g>
		<path class="st2" d="M216.5,17.5h-42.7c-5.1,0-8.9,2.8-8.9,7.6v11.6v2.6v10.2c0,2,1.1,3.1,2.9,3.1h8.9c1.8,0,2.6-0.9,2.6-2.9v-8.3
			c0-1.6,0.8-2.5,2.3-2.5h34.6c1.6,0,2.5-0.7,2.5-2v-3.8c0-1.5-0.8-2.3-2.5-2.3h-34.4c-1.6,0-2.5-0.7-2.5-2.1c0-1.6,0.8-2.4,2.5-2.4
			h34.6c1.5,0,2.3-0.7,2.3-2.2v-4.6C218.8,18.2,218,17.5,216.5,17.5"/>
	</g>
	<g>
		<path class="st2" d="M392.2,17.5h-46.8c-1.5,0-2.3,0.8-2.3,2.1v5.1c0,1.4,0.8,2.2,2.3,2.2h16.2v22.6c0,2,1.1,3.1,2.9,3.1h8.9
			c1.8,0,2.6-0.9,2.6-2.9V27h16.2c1.5,0,2.3-0.7,2.3-2.2v-5.2C394.5,18.3,393.7,17.5,392.2,17.5"/>
	</g>
	<g>
		<path class="st2" d="M321.1,30.9h-20c-1.3,0-1.9-0.7-1.9-2.1c0-1.6,0.6-2.4,1.9-2.4h20c1.7,0,2.9,0.8,2.9,2.4
			C323.9,30.4,322.9,30.9,321.1,30.9 M339.9,50.2l-13-11.1h2.9c5.9,0,8.9-1.9,8.9-5.8v-9.6c0-4.1-2.9-6.1-8.7-6.1h-36.4
			c-5.1,0-8.9,2.9-8.9,7.6v24.7c0,1.9,0.9,2.9,2.3,2.9h10c1.4,0,2.1-0.8,2.1-2.5v-8.7c0-1.6,0.7-2.5,2.3-2.5h8.3l8.5,7.8l6.2,5.8h15
			C341.1,52.7,341.4,51.4,339.9,50.2"/>
	</g>
	<g>
		<path class="st2" d="M452,17.5h-8.7c-2.2,0-3.3,1.7-3.3,3.7v16.5l-0.8-0.7L425,23.8c-4.5-4.2-8.9-6.3-13.1-6.3h-5.5
			c-5.3,0-7.8,2.1-7.8,6.4v22.6c0,4.1,1.9,6.2,6.3,6.2h20.5c1.4,0,1.8-0.7,0.6-1.9l-5.8-5.4c-1.1-1.1-2.3-1.6-3.5-1.7h-3.4
			c-1.8,0-2.3-0.8-2.3-2.5V30.5c0-1.6,0.8-2.3,2.1-1.1l24.9,23.3h14.4c1.9,0,3.1-0.7,3.1-3.2v-3.8V20.8
			C455.4,18.9,454.1,17.5,452,17.5"/>
	</g>
	<g>
		<path class="st2" d="M565.4,37.2c-1-1.3-1-2.6,0-4.1l9.1-12.3c1.1-1.7,0.4-3.3-3.1-3.3H562c-1.7,0-3,1.2-3.9,2.3l-8.3,9.8
			c-0.7,0.8-1.6,1.2-2.6,1.2c-0.9,0-1.8-0.4-2.6-1.2l-8.3-9.8c-0.9-1-2.1-2.3-3.9-2.3h-9.4c-3.5,0-4.2,1.5-3.1,3.3l9.1,12.3
			c1,1.4,1,2.8,0,4.1l-8.7,11.6c-1.7,2.6-0.5,4,2.2,4h9.7c2,0,3.4-1.3,4.5-2.9l7.8-9.8c0.7-0.9,1.7-1.3,2.6-1.3
			c0.9,0,1.9,0.4,2.6,1.3l7.8,9.8c1.1,1.5,2.4,2.9,4.5,2.9h9.7c2.8,0,4-1.3,2.2-4L565.4,37.2z"/>
	</g>
	<g>
		<path d="M167.7,82.4c0.3,0.6,0.7,1.2,1.3,1.6c0.6,0.4,1.2,0.7,2,0.8c0.8,0.2,1.6,0.2,2.4,0.2c0.5,0,1-0.1,1.6-0.2
			c0.6-0.1,1.1-0.4,1.6-0.7c0.5-0.3,0.9-0.7,1.2-1.2s0.5-1.1,0.5-1.7c0-0.5-0.1-1-0.4-1.4c-0.2-0.4-0.5-0.7-0.9-1
			c-0.4-0.3-0.8-0.5-1.2-0.6c-0.5-0.2-0.9-0.3-1.3-0.4l-4.3-1c-0.5-0.1-1.1-0.3-1.6-0.5c-0.5-0.2-1-0.5-1.4-0.8
			c-0.4-0.4-0.7-0.8-0.9-1.3c-0.2-0.5-0.4-1.1-0.4-1.9c0-0.5,0.1-1,0.3-1.6c0.2-0.6,0.5-1.2,1-1.7c0.5-0.5,1.1-1,2-1.4
			c0.8-0.4,1.9-0.6,3.3-0.6c0.9,0,1.8,0.1,2.8,0.4c0.8,0.2,1.6,0.6,2.2,1.1s1.1,1.1,1.5,1.8c0.4,0.7,0.6,1.6,0.6,2.5h-1.8
			c0-0.7-0.2-1.3-0.5-1.9c-0.3-0.5-0.7-1-1.1-1.3c-0.5-0.4-1-0.6-1.6-0.8c-0.6-0.2-1.2-0.3-1.9-0.3c-0.6,0-1.2,0.1-1.8,0.2
			c-0.6,0.1-1.1,0.3-1.5,0.6c-0.4,0.3-0.8,0.7-1,1.1c-0.3,0.5-0.4,1.1-0.4,1.8c0,0.4,0.1,0.8,0.2,1.1c0.1,0.3,0.4,0.6,0.6,0.8
			c0.3,0.2,0.6,0.4,0.9,0.6c0.3,0.1,0.7,0.3,1.1,0.3l4.7,1.1c0.7,0.2,1.3,0.4,1.9,0.6c0.6,0.3,1.1,0.6,1.6,0.9
			c0.4,0.4,0.8,0.8,1.1,1.4c0.3,0.5,0.4,1.2,0.4,2c0,0.2,0,0.5-0.1,0.8c0,0.4-0.1,0.7-0.3,1.1c-0.2,0.4-0.4,0.8-0.7,1.2
			c-0.3,0.4-0.7,0.8-1.3,1.1c-0.5,0.3-1.2,0.6-2,0.8c-0.8,0.2-1.7,0.3-2.9,0.3s-2.1-0.1-3.2-0.4c-0.9-0.3-1.8-0.6-2.4-1.2
			c-0.7-0.5-1.2-1.2-1.5-2c-0.4-0.8-0.5-1.8-0.5-3.1h1.8C167.2,81,167.4,81.8,167.7,82.4z"/>
		<path d="M184.5,72.4v2.3h0.1c0.4-0.8,1-1.5,1.7-2s1.6-0.7,2.8-0.7c0.9,0,1.7,0.2,2.4,0.7c0.7,0.4,1.2,1.1,1.5,2
			c0.4-0.9,1-1.6,1.8-2c0.8-0.4,1.6-0.7,2.5-0.7c3.1,0,4.6,1.6,4.6,4.9v9.4h-1.7V77c0-1.1-0.2-2-0.7-2.6s-1.3-0.9-2.5-0.9
			c-0.7,0-1.3,0.1-1.8,0.4c-0.5,0.3-0.9,0.6-1.1,1.1c-0.3,0.5-0.5,1-0.6,1.6c-0.1,0.6-0.2,1.2-0.2,1.8v7.8h-1.7v-9.4
			c0-0.5,0-0.9-0.1-1.3c-0.1-0.4-0.3-0.8-0.5-1.1c-0.2-0.3-0.5-0.5-0.9-0.7c-0.4-0.2-0.8-0.3-1.3-0.3c-0.7,0-1.3,0.1-1.8,0.4
			c-0.5,0.3-0.9,0.6-1.3,1.1c-0.3,0.4-0.6,1-0.7,1.6c-0.2,0.6-0.2,1.3-0.2,2v7.7h-1.7v-14H184.5z"/>
		<path d="M205.6,74.5c0.3-0.6,0.7-1.1,1.1-1.4c0.5-0.4,1-0.6,1.7-0.8c0.6-0.2,1.4-0.3,2.2-0.3c0.6,0,1.2,0.1,1.8,0.2
			c0.6,0.1,1.1,0.3,1.6,0.6c0.5,0.3,0.9,0.8,1.2,1.3c0.3,0.6,0.4,1.3,0.4,2.2v7.3c0,0.7,0.3,1,1,1c0.2,0,0.4,0,0.5-0.1V86
			c-0.2,0-0.4,0.1-0.5,0.1c-0.1,0-0.3,0-0.6,0c-0.4,0-0.8-0.1-1-0.2c-0.3-0.1-0.5-0.3-0.6-0.5c-0.1-0.2-0.2-0.5-0.3-0.7
			c0-0.3-0.1-0.6-0.1-1H214c-0.3,0.4-0.6,0.8-0.9,1.2c-0.3,0.3-0.6,0.6-1,0.9c-0.4,0.2-0.8,0.4-1.3,0.5c-0.5,0.1-1.1,0.2-1.7,0.2
			s-1.2-0.1-1.8-0.2c-0.6-0.1-1-0.4-1.4-0.7c-0.4-0.3-0.7-0.7-1-1.2c-0.2-0.5-0.4-1.1-0.4-1.8c0-0.9,0.2-1.7,0.6-2.2
			c0.4-0.5,1-0.9,1.7-1.2c0.7-0.3,1.5-0.5,2.3-0.6c0.9-0.1,1.7-0.2,2.6-0.3c0.4,0,0.7-0.1,0.9-0.1c0.3-0.1,0.5-0.1,0.7-0.3
			c0.2-0.1,0.3-0.3,0.4-0.5c0.1-0.2,0.1-0.5,0.1-0.9c0-0.6-0.1-1-0.3-1.4c-0.2-0.4-0.4-0.6-0.8-0.9c-0.3-0.2-0.7-0.4-1.1-0.4
			c-0.4-0.1-0.9-0.1-1.4-0.1c-1.1,0-1.9,0.2-2.6,0.7c-0.7,0.5-1,1.3-1.1,2.4h-1.7C205.2,75.9,205.3,75.1,205.6,74.5z M214,78.7
			c-0.1,0.2-0.3,0.3-0.6,0.4c-0.3,0.1-0.6,0.1-0.8,0.2c-0.7,0.1-1.4,0.2-2.2,0.3c-0.7,0.1-1.4,0.2-2,0.4c-0.6,0.2-1.1,0.5-1.5,0.8
			c-0.4,0.4-0.6,0.9-0.6,1.5c0,0.4,0.1,0.8,0.2,1.1c0.2,0.3,0.4,0.6,0.7,0.8c0.3,0.2,0.6,0.4,1,0.5c0.4,0.1,0.7,0.2,1.1,0.2
			c0.6,0,1.2-0.1,1.8-0.3c0.6-0.2,1.1-0.5,1.5-0.8c0.4-0.4,0.8-0.8,1-1.3c0.3-0.5,0.4-1.1,0.4-1.8L214,78.7L214,78.7z M207.9,67
			c0.1-0.3,0.4-0.6,0.6-0.9c0.3-0.3,0.6-0.5,0.9-0.6s0.7-0.2,1.1-0.2c0.4,0,0.7,0.1,1.1,0.2c0.3,0.1,0.6,0.4,0.9,0.6
			c0.3,0.3,0.5,0.6,0.6,0.9c0.1,0.3,0.2,0.7,0.2,1.1c0,0.4-0.1,0.7-0.2,1.1c-0.1,0.3-0.4,0.6-0.6,0.9c-0.3,0.3-0.6,0.5-0.9,0.6
			c-0.3,0.1-0.7,0.2-1.1,0.2c-0.4,0-0.7-0.1-1.1-0.2c-0.3-0.1-0.6-0.4-0.9-0.6c-0.3-0.3-0.5-0.6-0.6-0.9c-0.1-0.3-0.2-0.7-0.2-1.1
			C207.7,67.7,207.8,67.3,207.9,67z M209.3,69.3c0.3,0.3,0.8,0.5,1.3,0.5s0.9-0.2,1.3-0.5c0.3-0.3,0.5-0.8,0.5-1.3s-0.2-0.9-0.5-1.3
			c-0.3-0.3-0.8-0.5-1.3-0.5s-0.9,0.2-1.3,0.5c-0.3,0.3-0.5,0.8-0.5,1.3C208.7,68.6,208.9,69,209.3,69.3z"/>
		<path d="M221.8,73.8v12.4H220V73.8h-2.3v-1.4h2.3v-1.2c0-0.6,0-1.1,0.1-1.6c0.1-0.5,0.3-0.9,0.5-1.3c0.2-0.4,0.6-0.6,1-0.8
			c0.4-0.2,1-0.3,1.6-0.3c0.2,0,0.5,0,0.7,0s0.4,0,0.7,0.1v1.4c-0.2,0-0.4-0.1-0.6-0.1c-0.2,0-0.4,0-0.6,0c-0.5,0-0.8,0.1-1.1,0.2
			c-0.2,0.1-0.4,0.3-0.5,0.6c-0.1,0.2-0.2,0.5-0.2,0.8c0,0.3,0,0.7,0,1v1.2h2.8v1.4H221.8z"/>
		<path d="M234.7,72.6c0.8,0.4,1.5,0.9,2,1.6c0.5,0.6,1,1.4,1.2,2.3c0.3,0.9,0.4,1.8,0.4,2.9c0,1-0.1,1.9-0.4,2.9
			c-0.3,0.9-0.7,1.6-1.2,2.3c-0.5,0.6-1.2,1.2-2,1.5c-0.8,0.4-1.7,0.6-2.8,0.6c-1,0-2-0.2-2.8-0.6c-0.8-0.4-1.5-0.9-2-1.5
			c-0.5-0.6-1-1.4-1.2-2.3c-0.3-0.9-0.4-1.8-0.4-2.9c0-1,0.1-1.9,0.4-2.9c0.3-0.9,0.7-1.6,1.2-2.3c0.5-0.6,1.2-1.2,2-1.6
			c0.8-0.4,1.7-0.6,2.8-0.6C233,72,233.9,72.2,234.7,72.6z M229.8,73.9c-0.6,0.3-1.1,0.8-1.5,1.3c-0.4,0.5-0.7,1.2-0.9,1.9
			c-0.2,0.7-0.3,1.4-0.3,2.1s0.1,1.4,0.3,2.1s0.5,1.3,0.9,1.9c0.4,0.5,0.9,1,1.5,1.3c0.6,0.3,1.3,0.5,2.1,0.5c0.8,0,1.5-0.2,2.1-0.5
			c0.6-0.3,1.1-0.8,1.5-1.3s0.7-1.2,0.9-1.9c0.2-0.7,0.3-1.4,0.3-2.1s-0.1-1.4-0.3-2.1c-0.2-0.7-0.5-1.3-0.9-1.9
			c-0.4-0.5-0.9-1-1.5-1.3c-0.6-0.3-1.3-0.5-2.1-0.5C231.1,73.4,230.4,73.6,229.8,73.9z M228.7,67.3h1.8v2.8h-1.8V67.3z M233.4,67.3
			h1.8v2.8h-1.8V67.3z"/>
		<path d="M242.5,72.4v3.3h0.1c0.4-1.1,1.1-2,2-2.6c0.9-0.6,1.9-0.9,3.3-0.8v1.7c-0.8,0-1.4,0.1-2.1,0.3c-0.6,0.2-1.1,0.6-1.6,1
			c-0.4,0.4-0.8,1-1,1.6c-0.2,0.6-0.4,1.3-0.4,2v7.3H241V72.4H242.5z"/>
		<path d="M250.2,81.7c0.2,0.6,0.4,1.2,0.8,1.7s0.8,0.9,1.4,1.3c0.6,0.3,1.2,0.5,2,0.5c1.2,0,2.2-0.3,2.9-0.9
			c0.7-0.6,1.2-1.5,1.4-2.5h1.7c-0.4,1.5-1,2.8-1.9,3.7c-0.9,0.8-2.3,1.3-4.1,1.3c-1.1,0-2-0.2-2.9-0.6c-0.8-0.4-1.4-0.9-1.9-1.6
			c-0.5-0.7-0.9-1.4-1.1-2.3c-0.2-0.9-0.4-1.8-0.4-2.8c0-0.9,0.1-1.8,0.4-2.6c0.2-0.9,0.6-1.6,1.1-2.3c0.5-0.7,1.1-1.2,1.9-1.6
			c0.8-0.4,1.7-0.6,2.9-0.6c1.1,0,2,0.2,2.9,0.7c0.8,0.4,1.4,1,1.9,1.7c0.5,0.7,0.8,1.5,1,2.4s0.3,1.9,0.3,2.9H250
			C249.9,80.3,250,81,250.2,81.7z M258.5,76.5c-0.2-0.6-0.5-1.1-0.9-1.5c-0.4-0.4-0.8-0.8-1.3-1.1c-0.5-0.3-1.1-0.4-1.8-0.4
			c-0.7,0-1.3,0.1-1.8,0.4c-0.5,0.3-1,0.6-1.3,1.1c-0.4,0.4-0.7,1-0.9,1.6c-0.2,0.6-0.4,1.2-0.4,1.8h9
			C258.8,77.7,258.7,77.1,258.5,76.5z"/>
		<path d="M268.3,72.4v1.4h-2.9v9.4c0,0.5,0.1,1,0.2,1.3c0.1,0.3,0.5,0.5,1.1,0.5c0.5,0,0.9,0,1.4-0.1v1.4c-0.2,0-0.5,0-0.7,0
			c-0.2,0-0.5,0-0.7,0c-1.1,0-1.9-0.2-2.3-0.6c-0.4-0.4-0.6-1.2-0.6-2.4v-9.5h-2.4v-1.4h2.4v-4.2h1.7v4.2H268.3z"/>
		<path d="M271.2,74.5c0.3-0.6,0.7-1.1,1.1-1.4c0.5-0.4,1-0.6,1.7-0.8c0.6-0.2,1.4-0.3,2.2-0.3c0.6,0,1.2,0.1,1.8,0.2
			c0.6,0.1,1.1,0.3,1.6,0.6s0.9,0.8,1.2,1.3c0.3,0.6,0.4,1.3,0.4,2.2v7.3c0,0.7,0.3,1,1,1c0.2,0,0.4,0,0.5-0.1V86
			c-0.2,0-0.4,0.1-0.5,0.1s-0.3,0-0.6,0c-0.4,0-0.8-0.1-1-0.2c-0.3-0.1-0.5-0.3-0.6-0.5s-0.2-0.5-0.3-0.7c0-0.3-0.1-0.6-0.1-1h-0.1
			c-0.3,0.4-0.6,0.8-0.9,1.2c-0.3,0.3-0.6,0.6-1,0.9c-0.4,0.2-0.8,0.4-1.3,0.5c-0.5,0.1-1.1,0.2-1.7,0.2s-1.2-0.1-1.8-0.2
			c-0.6-0.1-1-0.4-1.4-0.7c-0.4-0.3-0.7-0.7-1-1.2c-0.2-0.5-0.4-1.1-0.4-1.8c0-0.9,0.2-1.7,0.6-2.2c0.4-0.5,1-0.9,1.7-1.2
			c0.7-0.3,1.5-0.5,2.3-0.6c0.9-0.1,1.7-0.2,2.6-0.3c0.4,0,0.7-0.1,0.9-0.1c0.3-0.1,0.5-0.1,0.7-0.3c0.2-0.1,0.3-0.3,0.4-0.5
			c0.1-0.2,0.1-0.5,0.1-0.9c0-0.6-0.1-1-0.3-1.4s-0.4-0.6-0.8-0.9c-0.3-0.2-0.7-0.4-1.1-0.4c-0.2-0.2-0.7-0.2-1.2-0.2
			c-1.1,0-1.9,0.2-2.6,0.7c-0.7,0.5-1,1.3-1.1,2.4h-1.7C270.7,75.9,270.9,75.1,271.2,74.5z M279.5,78.7c-0.1,0.2-0.3,0.3-0.6,0.4
			c-0.3,0.1-0.6,0.1-0.8,0.2c-0.7,0.1-1.4,0.2-2.2,0.3c-0.7,0.1-1.4,0.2-2,0.4c-0.6,0.2-1.1,0.5-1.5,0.8c-0.4,0.4-0.6,0.9-0.6,1.5
			c0,0.4,0.1,0.8,0.2,1.1c0.2,0.3,0.4,0.6,0.7,0.8c0.3,0.2,0.6,0.4,1,0.5c0.4,0.1,0.7,0.2,1.1,0.2c0.6,0,1.2-0.1,1.8-0.3
			c0.6-0.2,1.1-0.5,1.5-0.8c0.4-0.4,0.8-0.8,1-1.3c0.3-0.5,0.4-1.1,0.4-1.8V78.7L279.5,78.7z"/>
		<path d="M296,87.9c-0.2,0.8-0.6,1.5-1,2.1c-0.5,0.6-1.1,1-1.9,1.3c-0.8,0.3-1.7,0.4-2.9,0.4c-0.7,0-1.4-0.1-2-0.2
			c-0.6-0.2-1.2-0.4-1.7-0.7c-0.5-0.3-0.9-0.8-1.3-1.3c-0.3-0.5-0.5-1.1-0.6-1.9h1.7c0.1,0.5,0.3,0.9,0.5,1.3
			c0.3,0.3,0.6,0.6,0.9,0.8c0.4,0.2,0.8,0.4,1.2,0.5c0.4,0.1,0.9,0.1,1.3,0.1c1.5,0,2.8-0.4,3.4-1.3c0.7-0.9,1-2.1,1-3.9v-1.8h-0.1
			c-0.4,0.8-1,1.5-1.7,2s-1.6,0.8-2.6,0.8c-1.1,0-2-0.2-2.9-0.5c-0.8-0.4-1.4-0.9-1.9-1.5c-0.5-0.6-0.9-1.4-1.1-2.2
			c-0.2-0.9-0.3-1.8-0.3-2.8c0-0.9,0.1-1.8,0.4-2.6c0.3-0.8,0.7-1.6,1.2-2.2c0.5-0.6,1.2-1.1,1.9-1.5c0.8-0.4,1.6-0.5,2.6-0.5
			c0.5,0,1,0.1,1.4,0.2c0.4,0.1,0.9,0.3,1.2,0.6c0.4,0.3,0.7,0.5,1,0.9c0.3,0.3,0.5,0.7,0.7,1.1h0.1v-2.6h1.7v12.7
			C296.3,86.2,296.2,87.1,296,87.9z M292.2,84.2c0.5-0.3,1-0.7,1.4-1.2c0.4-0.5,0.6-1.1,0.8-1.7c0.2-0.6,0.3-1.3,0.3-2
			s-0.1-1.3-0.2-2c-0.2-0.7-0.4-1.3-0.8-1.8c-0.4-0.5-0.8-1-1.4-1.3c-0.6-0.3-1.2-0.5-2-0.5s-1.5,0.2-2,0.5c-0.6,0.3-1,0.7-1.4,1.3
			c-0.4,0.5-0.6,1.1-0.8,1.8c-0.2,0.7-0.2,1.4-0.2,2.1s0.1,1.4,0.3,2c0.2,0.6,0.4,1.2,0.8,1.7c0.4,0.5,0.8,0.9,1.4,1.2
			c0.6,0.3,1.2,0.5,2,0.5C290.9,84.6,291.6,84.5,292.2,84.2z"/>
		<path d="M300.8,81.7c0.2,0.6,0.4,1.2,0.8,1.7c0.4,0.5,0.8,0.9,1.4,1.3c0.6,0.3,1.2,0.5,2,0.5c1.2,0,2.2-0.3,2.9-0.9
			c0.6-0.6,1.2-1.5,1.4-2.5h1.7c-0.4,1.5-1,2.8-1.9,3.7c-0.9,0.8-2.3,1.3-4.1,1.3c-1.1,0-2-0.2-2.9-0.6c-0.8-0.4-1.4-0.9-1.9-1.6
			s-0.9-1.4-1.1-2.3c-0.2-0.9-0.4-1.8-0.4-2.8c0-0.9,0.1-1.8,0.4-2.6c0.2-0.9,0.6-1.6,1.1-2.3c0.5-0.7,1.1-1.2,1.9-1.6
			c0.8-0.4,1.7-0.6,2.9-0.6c1.1,0,2,0.2,2.9,0.7c0.8,0.4,1.4,1,1.9,1.7c0.5,0.7,0.8,1.5,1,2.4s0.3,1.9,0.3,2.9h-10.6
			C300.6,80.3,300.6,81,300.8,81.7z M309.2,76.5c-0.2-0.6-0.5-1.1-0.9-1.5c-0.4-0.4-0.8-0.8-1.3-1.1c-0.5-0.3-1.1-0.4-1.8-0.4
			c-0.7,0-1.3,0.1-1.8,0.4s-1,0.6-1.3,1.1c-0.4,0.4-0.7,1-0.9,1.6c-0.2,0.6-0.4,1.2-0.4,1.8h9C309.5,77.7,309.4,77.1,309.2,76.5z"/>
		<path d="M315.2,72.4v2.3h0.1c0.3-0.8,0.9-1.5,1.7-2s1.7-0.7,2.8-0.7c0.9,0,1.7,0.1,2.4,0.4c0.6,0.2,1.2,0.6,1.5,1
			c0.4,0.4,0.7,1,0.8,1.6c0.2,0.6,0.2,1.4,0.2,2.2v8.9H323v-8.7c0-0.6-0.1-1.1-0.2-1.6s-0.3-0.9-0.6-1.3c-0.3-0.4-0.6-0.7-1.1-0.9
			c-0.4-0.2-1-0.3-1.7-0.3s-1.3,0.1-1.8,0.4c-0.5,0.2-1,0.6-1.3,1c-0.4,0.4-0.6,0.9-0.8,1.5c-0.2,0.6-0.3,1.2-0.3,1.9v8h-1.7V72.4
			H315.2z"/>
		<path d="M335.9,75c-0.2-0.4-0.5-0.7-0.8-0.9c-0.3-0.2-0.7-0.4-1.1-0.5c-0.4-0.1-0.9-0.2-1.3-0.2c-0.4,0-0.7,0-1.1,0.1
			c-0.4,0.1-0.7,0.2-1,0.4c-0.3,0.2-0.6,0.4-0.8,0.7c-0.2,0.3-0.3,0.7-0.3,1.1c0,0.4,0.1,0.7,0.3,0.9c0.2,0.3,0.4,0.5,0.7,0.6
			c0.3,0.2,0.6,0.3,0.9,0.4c0.3,0.1,0.6,0.2,0.9,0.3l2.2,0.5c0.5,0.1,0.9,0.2,1.4,0.4c0.5,0.2,0.9,0.4,1.2,0.7
			c0.4,0.3,0.7,0.7,0.9,1.1c0.2,0.4,0.3,1,0.3,1.6c0,0.7-0.2,1.4-0.5,1.9c-0.3,0.5-0.8,0.9-1.3,1.3c-0.5,0.3-1.1,0.6-1.7,0.7
			c-0.6,0.1-1.3,0.2-1.9,0.2c-1.6,0-3-0.4-4-1.1c-1-0.8-1.6-2-1.7-3.7h1.7c0.1,1.1,0.5,2,1.2,2.5c0.7,0.6,1.7,0.9,2.9,0.9
			c0.4,0,0.8,0,1.2-0.1c0.4-0.1,0.8-0.2,1.2-0.4c0.4-0.2,0.7-0.5,0.9-0.8c0.2-0.3,0.4-0.7,0.4-1.2c0-0.4-0.1-0.7-0.2-1
			c-0.2-0.3-0.4-0.5-0.7-0.7c-0.3-0.2-0.6-0.3-1-0.5c-0.4-0.1-0.7-0.2-1.1-0.3l-2.1-0.5c-0.5-0.1-1-0.3-1.5-0.5s-0.9-0.4-1.2-0.7
			c-0.3-0.3-0.6-0.6-0.8-1c-0.2-0.4-0.3-0.9-0.3-1.5c0-0.7,0.2-1.3,0.5-1.8c0.3-0.5,0.7-0.9,1.2-1.2c0.5-0.3,1-0.5,1.6-0.7
			c0.6-0.1,1.2-0.2,1.8-0.2c0.7,0,1.3,0.1,1.9,0.3c0.6,0.2,1.1,0.4,1.6,0.8c0.4,0.4,0.8,0.8,1.1,1.4c0.3,0.5,0.4,1.2,0.4,1.9h-1.7
			C336.2,76,336.1,75.5,335.9,75z"/>
		<path d="M349.9,67.1V75h0.1c0.2-0.5,0.4-0.9,0.7-1.3c0.3-0.4,0.7-0.7,1.1-0.9c0.4-0.3,0.9-0.4,1.4-0.6c0.5-0.1,1-0.2,1.5-0.2
			c1,0,1.9,0.2,2.8,0.6c0.8,0.4,1.4,0.9,1.9,1.6c0.5,0.7,0.9,1.4,1.1,2.3c0.2,0.9,0.4,1.8,0.4,2.8c0,1-0.1,1.9-0.4,2.8
			c-0.2,0.9-0.6,1.6-1.1,2.3c-0.5,0.7-1.1,1.2-1.9,1.6s-1.7,0.6-2.8,0.6c-1.1,0-2.1-0.3-3.1-0.8c-0.9-0.5-1.5-1.2-1.9-2.2h-0.1v2.6
			h-1.5V67.1H349.9z M359,77.2c-0.2-0.7-0.4-1.3-0.8-1.9c-0.4-0.5-0.8-1-1.4-1.3c-0.6-0.3-1.2-0.5-2-0.5c-0.9,0-1.6,0.2-2.2,0.5
			c-0.6,0.3-1.1,0.8-1.5,1.3c-0.4,0.5-0.6,1.2-0.8,1.9c-0.2,0.7-0.2,1.4-0.2,2.1s0.1,1.4,0.2,2.1c0.2,0.7,0.4,1.3,0.8,1.9
			c0.4,0.5,0.9,1,1.5,1.3s1.3,0.5,2.2,0.5c0.8,0,1.5-0.2,2-0.5c0.6-0.3,1-0.8,1.4-1.3s0.6-1.2,0.8-1.9c0.2-0.7,0.2-1.4,0.2-2.1
			C359.3,78.6,359.2,77.9,359,77.2z"/>
		<path d="M364,74.5c0.3-0.6,0.7-1.1,1.1-1.4c0.5-0.4,1-0.6,1.7-0.8c0.6-0.2,1.4-0.3,2.2-0.3c0.6,0,1.2,0.1,1.8,0.2
			c0.6,0.1,1.1,0.3,1.6,0.6c0.5,0.3,0.9,0.8,1.2,1.3c0.3,0.6,0.4,1.3,0.4,2.2v7.3c0,0.7,0.3,1,1,1c0.2,0,0.4,0,0.5-0.1V86
			c-0.2,0-0.4,0.1-0.5,0.1s-0.3,0-0.6,0c-0.4,0-0.8-0.1-1-0.2c-0.3-0.1-0.5-0.3-0.6-0.5s-0.2-0.5-0.3-0.7c0-0.3-0.1-0.6-0.1-1h-0.1
			c-0.3,0.4-0.6,0.8-0.9,1.2c-0.3,0.3-0.6,0.6-1,0.9c-0.4,0.2-0.8,0.4-1.3,0.5c-0.5,0.1-1.1,0.2-1.7,0.2c-0.6,0-1.2-0.1-1.8-0.2
			c-0.6-0.1-1-0.4-1.4-0.7c-0.4-0.3-0.7-0.7-1-1.2c-0.2-0.5-0.4-1.1-0.4-1.8c0-0.9,0.2-1.7,0.6-2.2c0.4-0.5,1-0.9,1.7-1.2
			c0.7-0.3,1.5-0.5,2.3-0.6c0.9-0.1,1.7-0.2,2.6-0.3c0.4,0,0.7-0.1,0.9-0.1c0.3-0.1,0.5-0.1,0.7-0.3c0.2-0.1,0.3-0.3,0.4-0.5
			s0.1-0.5,0.1-0.9c0-0.6-0.1-1-0.3-1.4c-0.2-0.4-0.4-0.6-0.8-0.9c-0.3-0.2-0.7-0.4-1.1-0.4c-0.4-0.1-0.9-0.1-1.4-0.1
			c-1.1,0-1.9,0.2-2.6,0.7c-0.7,0.5-1,1.3-1.1,2.4H363C363.5,75.9,363.7,75.1,364,74.5z M372.4,78.7c-0.1,0.2-0.3,0.3-0.6,0.4
			c-0.3,0.1-0.6,0.1-0.8,0.2c-0.7,0.1-1.4,0.2-2.2,0.3c-0.7,0.1-1.4,0.2-2,0.4c-0.6,0.2-1.1,0.5-1.5,0.8c-0.4,0.4-0.6,0.9-0.6,1.5
			c0,0.4,0.1,0.8,0.2,1.1c0.2,0.3,0.4,0.6,0.7,0.8c0.3,0.2,0.6,0.4,1,0.5c0.4,0.1,0.7,0.2,1.1,0.2c0.6,0,1.2-0.1,1.8-0.3
			c0.6-0.2,1.1-0.5,1.5-0.8c0.4-0.4,0.8-0.8,1-1.3c0.3-0.5,0.4-1.1,0.4-1.8V78.7L372.4,78.7z M365.7,67.3h1.8v2.8h-1.8V67.3z
			 M370.4,67.3h1.8v2.8h-1.8V67.3z"/>
		<path d="M385.5,75c-0.2-0.4-0.5-0.7-0.8-0.9c-0.3-0.2-0.7-0.4-1.1-0.5c-0.4-0.1-0.9-0.2-1.3-0.2c-0.4,0-0.7,0-1.1,0.1
			c-0.4,0.1-0.7,0.2-1,0.4c-0.3,0.2-0.6,0.4-0.8,0.7c-0.2,0.3-0.3,0.7-0.3,1.1c0,0.4,0.1,0.7,0.3,0.9c0.2,0.3,0.4,0.5,0.7,0.6
			c0.3,0.2,0.6,0.3,0.9,0.4c0.3,0.1,0.6,0.2,0.9,0.3l2.2,0.5c0.5,0.1,0.9,0.2,1.4,0.4c0.5,0.2,0.9,0.4,1.2,0.7
			c0.4,0.3,0.7,0.7,0.9,1.1c0.2,0.4,0.3,1,0.3,1.6c0,0.7-0.2,1.4-0.5,1.9c-0.3,0.5-0.8,0.9-1.3,1.3c-0.5,0.3-1.1,0.6-1.7,0.7
			c-0.6,0.1-1.3,0.2-1.9,0.2c-1.6,0-3-0.4-4-1.1c-1-0.8-1.6-2-1.7-3.7h1.7c0.1,1.1,0.5,2,1.2,2.5c0.7,0.6,1.7,0.9,2.9,0.9
			c0.4,0,0.8,0,1.2-0.1c0.4-0.1,0.8-0.2,1.2-0.4c0.4-0.2,0.7-0.5,0.9-0.8c0.2-0.3,0.4-0.7,0.4-1.2c0-0.4-0.1-0.7-0.2-1
			c-0.2-0.3-0.4-0.5-0.7-0.7c-0.3-0.2-0.6-0.3-1-0.5c-0.4-0.1-0.7-0.2-1.1-0.3l-2.1-0.5c-0.5-0.1-1-0.3-1.5-0.5s-0.9-0.4-1.2-0.7
			c-0.3-0.3-0.6-0.6-0.8-1c-0.2-0.4-0.3-0.9-0.3-1.5c0-0.7,0.2-1.3,0.5-1.8c0.3-0.5,0.7-0.9,1.2-1.2c0.5-0.3,1-0.5,1.6-0.7
			c0.6-0.1,1.2-0.2,1.8-0.2c0.7,0,1.3,0.1,1.9,0.3c0.6,0.2,1.1,0.4,1.6,0.8c0.4,0.4,0.8,0.8,1.1,1.4c0.3,0.5,0.4,1.2,0.4,1.9h-1.7
			C385.8,76,385.7,75.5,385.5,75z"/>
		<path d="M395.8,72.4v1.4h-2.8v9.4c0,0.5,0.1,1,0.2,1.3c0.1,0.3,0.5,0.5,1.1,0.5c0.5,0,0.9,0,1.4-0.1v1.4c-0.2,0-0.5,0-0.7,0
			s-0.5,0-0.7,0c-1.1,0-1.9-0.2-2.3-0.6c-0.4-0.4-0.6-1.2-0.6-2.4v-9.5H389v-1.4h2.4v-4.2h1.7v4.2H395.8z"/>
		<path d="M398.7,74.5c0.3-0.6,0.7-1.1,1.1-1.4c0.5-0.4,1-0.6,1.7-0.8c0.6-0.2,1.4-0.3,2.2-0.3c0.6,0,1.2,0.1,1.8,0.2
			c0.6,0.1,1.1,0.3,1.6,0.6c0.5,0.3,0.9,0.8,1.2,1.3c0.3,0.6,0.4,1.3,0.4,2.2v7.3c0,0.7,0.3,1,1,1c0.2,0,0.4,0,0.5-0.1V86
			c-0.2,0-0.4,0.1-0.5,0.1s-0.3,0-0.6,0c-0.4,0-0.8-0.1-1-0.2c-0.3-0.1-0.5-0.3-0.6-0.5s-0.2-0.5-0.3-0.7c0-0.3-0.1-0.6-0.1-1h-0.1
			c-0.3,0.4-0.6,0.8-0.9,1.2c-0.3,0.3-0.6,0.6-1,0.9c-0.4,0.2-0.8,0.4-1.3,0.5c-0.5,0.1-1.1,0.2-1.7,0.2c-0.6,0-1.2-0.1-1.8-0.2
			c-0.6-0.1-1-0.4-1.4-0.7c-0.4-0.3-0.7-0.7-1-1.2c-0.2-0.5-0.4-1.1-0.4-1.8c0-0.9,0.2-1.7,0.6-2.2c0.4-0.5,1-0.9,1.7-1.2
			c0.7-0.3,1.5-0.5,2.3-0.6c0.9-0.1,1.7-0.2,2.6-0.3c0.4,0,0.7-0.1,0.9-0.1c0.3-0.1,0.5-0.1,0.7-0.3c0.2-0.1,0.3-0.3,0.4-0.5
			s0.1-0.5,0.1-0.9c0-0.6-0.1-1-0.3-1.4s-0.4-0.6-0.8-0.9c-0.3-0.2-0.7-0.4-1.1-0.4c-0.4-0.1-0.9-0.1-1.4-0.1
			c-1.1,0-1.9,0.2-2.6,0.7c-0.7,0.5-1,1.3-1.1,2.4h-1.3C398.2,75.9,398.4,75.1,398.7,74.5z M407.1,78.7c-0.1,0.2-0.3,0.3-0.6,0.4
			c-0.3,0.1-0.6,0.1-0.8,0.2c-0.7,0.1-1.4,0.2-2.2,0.3c-0.7,0.1-1.4,0.2-2,0.4c-0.6,0.2-1.1,0.5-1.5,0.8c-0.4,0.4-0.6,0.9-0.6,1.5
			c0,0.4,0.1,0.8,0.2,1.1c0.2,0.3,0.4,0.6,0.7,0.8c0.3,0.2,0.6,0.4,1,0.5c0.4,0.1,0.7,0.2,1.1,0.2c0.6,0,1.2-0.1,1.8-0.3
			c0.6-0.2,1.1-0.5,1.5-0.8c0.4-0.4,0.8-0.8,1-1.3c0.3-0.5,0.4-1.1,0.4-1.8V78.7L407.1,78.7z"/>
		<path d="M420,72.4l4.4,12.1h0.1l4.3-12.1h1.7l-5.2,13.9h-1.8l-5.3-13.9H420z"/>
		<path d="M432.4,74.5c0.3-0.6,0.7-1.1,1.1-1.4c0.5-0.4,1-0.6,1.7-0.8c0.6-0.2,1.4-0.3,2.2-0.3c0.6,0,1.2,0.1,1.8,0.2
			c0.6,0.1,1.1,0.3,1.6,0.6c0.5,0.3,0.9,0.8,1.2,1.3c0.3,0.6,0.4,1.3,0.4,2.2v7.3c0,0.7,0.3,1,1,1c0.2,0,0.4,0,0.5-0.1V86
			c-0.2,0-0.4,0.1-0.5,0.1s-0.3,0-0.6,0c-0.4,0-0.8-0.1-1-0.2c-0.3-0.1-0.5-0.3-0.6-0.5s-0.2-0.5-0.3-0.7c0-0.3-0.1-0.6-0.1-1h0
			c-0.3,0.4-0.6,0.8-0.9,1.2c-0.3,0.3-0.6,0.6-1,0.9c-0.4,0.2-0.8,0.4-1.3,0.5c-0.5,0.1-1.1,0.2-1.7,0.2s-1.2-0.1-1.8-0.2
			c-0.6-0.1-1-0.4-1.4-0.7c-0.4-0.3-0.7-0.7-1-1.2c-0.2-0.5-0.4-1.1-0.4-1.8c0-0.9,0.2-1.7,0.6-2.2c0.4-0.5,1-0.9,1.7-1.2
			c0.7-0.3,1.5-0.5,2.3-0.6c0.9-0.1,1.7-0.2,2.6-0.3c0.4,0,0.7-0.1,0.9-0.1c0.3-0.1,0.5-0.1,0.7-0.3c0.2-0.1,0.3-0.3,0.4-0.5
			s0.1-0.5,0.1-0.9c0-0.6-0.1-1-0.3-1.4c-0.2-0.4-0.4-0.6-0.8-0.9c-0.3-0.2-0.7-0.4-1.1-0.4c-0.4-0.1-0.9-0.1-1.4-0.1
			c-1.1,0-1.9,0.2-2.6,0.7c-0.7,0.5-1,1.3-1.1,2.4h-1.7C432,75.9,432.1,75.1,432.4,74.5z M440.9,78.7c-0.1,0.2-0.3,0.3-0.6,0.4
			c-0.3,0.1-0.6,0.1-0.8,0.2c-0.7,0.1-1.4,0.2-2.2,0.3c-0.7,0.1-1.4,0.2-2,0.4c-0.6,0.2-1.1,0.5-1.5,0.8c-0.4,0.4-0.6,0.9-0.6,1.5
			c0,0.4,0.1,0.8,0.2,1.1c0.2,0.3,0.4,0.6,0.7,0.8c0.3,0.2,0.6,0.4,1,0.5c0.4,0.1,0.7,0.2,1.1,0.2c0.6,0,1.2-0.1,1.8-0.3
			c0.6-0.2,1.1-0.5,1.5-0.8c0.4-0.4,0.8-0.8,1-1.3c0.3-0.5,0.4-1.1,0.4-1.8V78.7L440.9,78.7z M434.2,67.3h1.8v2.8h-1.8V67.3z
			 M438.8,67.3h1.8v2.8h-1.8V67.3z"/>
		<path d="M447.6,72.4v2.3h0.1c0.3-0.8,0.9-1.5,1.7-2c0.8-0.5,1.7-0.7,2.8-0.7c0.9,0,1.7,0.1,2.4,0.4c0.6,0.2,1.2,0.6,1.5,1
			c0.4,0.4,0.7,1,0.8,1.6c0.2,0.6,0.2,1.4,0.2,2.2v8.9h-1.7v-8.7c0-0.6-0.1-1.1-0.2-1.6s-0.3-0.9-0.6-1.3c-0.3-0.4-0.6-0.7-1.1-0.9
			c-0.4-0.2-1-0.3-1.7-0.3s-1.3,0.1-1.8,0.4c-0.5,0.2-1,0.6-1.3,1c-0.4,0.4-0.6,0.9-0.8,1.5c-0.2,0.6-0.3,1.2-0.3,1.9v8h-1.7V72.4
			H447.6z"/>
	</g>
</g>
</svg>
