<svg xmlns="http://www.w3.org/2000/svg" viewBox="0 0 99.93 51.82"><defs><style>.a{fill:#0d83dd;}.b{fill:#040505;}.c{fill:#648c0f;}.d{fill:#86c61f;}</style></defs><title>fb-logo</title><path d="M29.9,45.56c-.08-.73-.2-1.34-.89-1.34-.84,0-1,.87-1,2.36,0,.55,0,2.06,1,2.06.76,0,.85-.82.89-1.34l1.18.11c-.1.76-.3,2.28-2.17,2.28s-2.24-1.92-2.24-3.23S27.05,43.2,29,43.2c1.77,0,2,1.57,2.09,2.24l-1.18.12Z" transform="translate(0 0)"/><polygon points="31.95 49.54 33.18 49.54 33.18 41.16 31.95 41.16 31.95 49.54"/><path d="M35.24,46.45c0,1.62.35,2.27,1,2.27s1-.63,1-2.28-.34-2.27-1-2.27-1,.78-1,2.29m3.38-.08c0,1.44-.33,3.32-2.35,3.32-1.85,0-2.33-1.64-2.33-3.25s.4-3.24,2.35-3.24,2.33,1.67,2.33,3.18" transform="translate(0 0)"/><path d="M40.6,43.35v3.93c0,.87,0,1.38.69,1.38,1,0,1-1.19,1-2.33v-3h1.23v6.19H42.38v-.93a1.53,1.53,0,0,1-1.51,1.08c-1.5,0-1.5-1.36-1.5-2.39v-4Z" transform="translate(0 0)"/><path d="M47.71,45.9a2.09,2.09,0,0,0-.25-1.2,1,1,0,0,0-.82-.52c-.91,0-1,1.19-1,2.18s.11,2.32,1,2.32a1,1,0,0,0,.81-.49A2.13,2.13,0,0,0,47.71,47V45.9Zm1.22-4.73v8.37H47.8V48.6a1.49,1.49,0,0,1-1.5,1.05c-1.68,0-2-2-2-3.18,0-2.12.86-3.24,2-3.24a1.37,1.37,0,0,1,1.36.83v-2.9Z" transform="translate(0 0)"/><path d="M54.8,46.51h-.36c-1.42,0-1.6.74-1.6,1.32,0,.74.39.93.8.93s1.17-.55,1.17-1.92v-.31Zm-3-1.57A2.1,2.1,0,0,1,54,43.2a2,2,0,0,1,1.64.67A3,3,0,0,1,56,45.72v2.1a9.62,9.62,0,0,0,.1,1.72H55a4.25,4.25,0,0,1-.08-1,1.8,1.8,0,0,1-1.68,1.18,1.61,1.61,0,0,1-1.67-1.78A1.93,1.93,0,0,1,52.78,46a5.66,5.66,0,0,1,2-.25v-.25c0-.45,0-1.33-.88-1.33a1,1,0,0,0-1,1l-1.18-.16Z" transform="translate(0 0)"/><path d="M60.06,45.56c-.08-.73-.21-1.34-.89-1.34-.85,0-1.05.87-1.05,2.36,0,.55,0,2.06,1.05,2.06.76,0,.84-.82.89-1.34l1.18.11c-.1.76-.3,2.28-2.17,2.28s-2.24-1.92-2.24-3.23.39-3.26,2.33-3.26c1.78,0,2,1.57,2.09,2.24l-1.18.12Z" transform="translate(0 0)"/><path d="M65.16,45.56c-.09-.73-.21-1.34-.89-1.34-.84,0-1,.87-1,2.36,0,.55,0,2.06,1,2.06.76,0,.84-.82.89-1.34l1.18.11c-.09.76-.3,2.28-2.17,2.28s-2.24-1.92-2.24-3.23.39-3.26,2.33-3.26c1.78,0,2,1.57,2.09,2.24l-1.18.12Z" transform="translate(0 0)"/><path d="M68.37,46.45c0,1.62.35,2.27,1,2.27s1-.63,1-2.28-.34-2.27-1-2.27-1,.78-1,2.29m3.38-.08c0,1.44-.33,3.32-2.35,3.32-1.85,0-2.33-1.64-2.33-3.25s.4-3.24,2.35-3.24,2.33,1.67,2.33,3.18" transform="translate(0 0)"/><path d="M73.76,43.35v3.93c0,.87,0,1.38.69,1.38,1,0,1-1.19,1-2.33v-3h1.23v6.19H75.54v-.93A1.53,1.53,0,0,1,74,49.69c-1.49,0-1.49-1.36-1.49-2.39v-4Z" transform="translate(0 0)"/><path d="M77.62,43.35h1.14v1a1.51,1.51,0,0,1,1.47-1.11,1.38,1.38,0,0,1,1.33.77,3.83,3.83,0,0,1,.2,1.58v4H80.53V45.62c0-.8,0-1.39-.71-1.39-1,0-1,1.2-1,1.85v3.46H77.62V43.35Z" transform="translate(0 0)"/><path d="M85.41,44.38H84.28v2.74c0,1.08,0,1.49.82,1.49a4.37,4.37,0,0,0,.51,0v1a4.17,4.17,0,0,1-.92.11c-1.62,0-1.62-1.13-1.62-2.49V44.38H82.3v-1h.81l.06-1.62,1.11-.1v1.72h1.14v1Z" transform="translate(0 0)"/><path d="M86.52,49.54h1.23V43.35H86.52v6.19Zm0-7h1.29V41.15H86.49v1.36Z" transform="translate(0 0)"/><path d="M88.8,43.35h1.14v1a1.52,1.52,0,0,1,1.47-1.11,1.38,1.38,0,0,1,1.33.77,3.85,3.85,0,0,1,.2,1.58v4H91.71V45.62c0-.8,0-1.39-.71-1.39-1,0-1,1.2-1,1.85v3.46H88.8V43.35Z" transform="translate(0 0)"/><path d="M95.3,45.26c0,.19,0,1.19.84,1.19s.85-1,.85-1.19,0-1.22-.81-1.22-.88.69-.88,1.22Zm-.48,4.81c0,.67.53.87,1.44.87.52,0,1.41-.09,1.41-.85a.69.69,0,0,0-.71-.71c-.23,0-1.36-.08-1.62-.09a.85.85,0,0,0-.52.79Zm3.91-6.77a1.1,1.1,0,0,0-.28,0c-.35,0-.56.16-.65.68a2.11,2.11,0,0,1,.46,1.33,1.94,1.94,0,0,1-2.06,2,2.43,2.43,0,0,1-.76-.11c-.18.09-.45.2-.45.55s.3.48,1.51.54,2.32.14,2.32,1.67-1.61,1.92-2.7,1.92c-.84,0-2.4-.16-2.4-1.56a1.17,1.17,0,0,1,.87-1.19,1.16,1.16,0,0,1-.65-1,1.39,1.39,0,0,1,.88-1.23A1.71,1.71,0,0,1,94,45.23a2,2,0,0,1,2.09-2,2.46,2.46,0,0,1,1.14.26c.08-.48.19-1.14,1.1-1.14a3,3,0,0,1,.39,0v.94Z" transform="translate(0 0)"/><polygon class="a" points="0 19.01 8.67 19.01 8.67 23.02 4.26 23.02 4.26 26.47 8.17 26.47 8.17 30.38 4.26 30.38 4.26 37.8 0 37.8 0 19.01"/><path class="a" d="M12.58,25.15v3.72q2.36,0,2.36-1.65a2,2,0,0,0-.55-1.56,2.91,2.91,0,0,0-1.82-.5ZM9,22.11h4.14a5.77,5.77,0,0,1,4,1.29,4.46,4.46,0,0,1,1.46,3.51,4.75,4.75,0,0,1-.55,2.2,3.65,3.65,0,0,1-1.61,1.6l2.84,7.07H15.52l-2.88-7.14h-.06v7.14H9V22.11Z" transform="translate(0 0)"/><polygon class="a" points="19.56 22.11 26.76 22.11 26.76 25.45 23.12 25.45 23.12 28.34 26.28 28.34 26.28 31.59 23.12 31.59 23.12 34.45 26.78 34.45 26.78 37.79 19.56 37.79 19.56 22.11"/><polygon class="a" points="34.43 22.11 37.99 22.11 37.99 27.93 41.15 27.93 41.15 22.11 44.71 22.11 44.71 37.79 41.15 37.79 41.15 31.27 37.99 31.27 37.99 37.79 34.43 37.79 34.43 22.11"/><path class="b" d="M49.72,30.08v4.11a5.26,5.26,0,0,0,2.48-.5A1.67,1.67,0,0,0,53,32.11q0-2-2.95-2Zm0-7.47v4.06q3-.07,3-2A1.73,1.73,0,0,0,52,23.09a4.61,4.61,0,0,0-2.29-.48ZM45.46,19h4.37c2.54,0,4.37.5,5.49,1.48A4.85,4.85,0,0,1,57,24.28a4.54,4.54,0,0,1-2.42,4,4.06,4.06,0,0,1,2.72,4.12,5,5,0,0,1-1.71,3.92,6.63,6.63,0,0,1-4.51,1.49h-5.6V19Z" transform="translate(0 0)"/><path class="b" d="M63.22,25.25q-1.92,0-1.92,4.52a10.09,10.09,0,0,0,.49,3.89,1.53,1.53,0,0,0,1.42,1,1.68,1.68,0,0,0,1.53-1,9.08,9.08,0,0,0,.53-3.82q0-4.6-2-4.59m.13,12.95A4.92,4.92,0,0,1,59,36a11.09,11.09,0,0,1-1.49-6.29A10.13,10.13,0,0,1,59,23.81a4.82,4.82,0,0,1,4.18-2.12,5,5,0,0,1,4.36,2.13,10.41,10.41,0,0,1,1.51,6.07A10.78,10.78,0,0,1,67.58,36a4.82,4.82,0,0,1-4.24,2.18" transform="translate(0 0)"/><path class="b" d="M75,25.25Q73,25.25,73,29.77a10.13,10.13,0,0,0,.49,3.89,1.54,1.54,0,0,0,1.42,1,1.67,1.67,0,0,0,1.53-1A9,9,0,0,0,77,29.84q0-4.6-2-4.59m.13,12.95A4.93,4.93,0,0,1,70.76,36a11.11,11.11,0,0,1-1.49-6.29,10.13,10.13,0,0,1,1.5-5.91,4.82,4.82,0,0,1,4.18-2.12,5,5,0,0,1,4.36,2.13,10.38,10.38,0,0,1,1.51,6.07A10.77,10.77,0,0,1,79.33,36a4.82,4.82,0,0,1-4.23,2.18" transform="translate(0 0)"/><polygon class="b" points="81.1 22.11 84.66 22.11 84.66 29.49 84.72 29.49 88.08 22.11 91.82 22.11 88.17 30.12 91.66 37.79 87.75 37.79 84.72 31.27 84.66 31.27 84.66 37.79 81.1 37.79 81.1 22.11"/><path class="b" d="M91.95,37.51V33.86a6,6,0,0,0,2.84,1,1.47,1.47,0,0,0,1.06-.37,1.3,1.3,0,0,0,.39-1,1.44,1.44,0,0,0-.31-.88,5.88,5.88,0,0,0-1.08-1A12.21,12.21,0,0,1,92.17,29a4.7,4.7,0,0,1-.83-2.71,4.39,4.39,0,0,1,4.59-4.59,7.37,7.37,0,0,1,3,.65v3.51A5.83,5.83,0,0,0,96.35,25a1.58,1.58,0,0,0-1,.32,1.1,1.1,0,0,0-.38.89q0,1,1.77,2.22a10.75,10.75,0,0,1,2.15,2.05,4.68,4.68,0,0,1,1.09,3.06,4.42,4.42,0,0,1-1.42,3.36,5.05,5.05,0,0,1-3.6,1.33,6.79,6.79,0,0,1-3-.7" transform="translate(0 0)"/><path class="a" d="M34.74,33.72,31.16,28.6c-3.58-5.12,4.09-8.44,4.09-8.44l-.56-.56s-12.47,2.57-7.25,10L31,35c1.33,2-.66,3.16-1.89,3.16H26.83v1h1.75c3,0,9.34-.65,6.16-5.38" transform="translate(0 0)"/><path class="c" d="M76.64,14.75s-1.66,1-4.71,5.44c-.48.7-.8.63-.8.63s.14,1.07,1.71.75c0,0,2.22-5.26,4.54-6.31l-.74-.51Z" transform="translate(0 0)"/><path class="d" d="M74.47,17.46s1-14.39,12.69-14C96.82,3.76,99.93,0,99.93,0s.1,20.44-25.46,17.46" transform="translate(0 0)"/><path class="c" d="M75.87,16.07S80.7,8.78,86.4,8.22a18.93,18.93,0,0,0,9.34-3.44A15.36,15.36,0,0,1,86,9.71c-5.32.53-10.17,6.36-10.17,6.36" transform="translate(0 0)"/></svg>