<svg xmlns="http://www.w3.org/2000/svg" viewBox="0 0 96.256022 35.714286" height="35.714" width="96.256"><g fill-rule="evenodd"><path d="M50.015 14.31h-1.277v3.158h1.41c1.396 0 2.105-.528 2.105-1.57 0-1.053-.753-1.588-2.238-1.588zm3.805 4.72c-.754.705-1.964 1.063-3.598 1.063h-1.484v3.936h-2.85V11.684h3.995c1.786 0 3.062.31 3.79.917.95.79 1.43 1.884 1.43 3.25 0 1.318-.43 2.387-1.283 3.178zm3.556 5h6.693v-2.626h-3.71v-9.72h-2.984V24.03zM71.73 15.1l-1.466 4.778h2.914l-1.447-4.78zm6.092 8.93h-3.244l-.602-1.828H69.45l-.66 1.827h-3.207l4.94-12.345h2.395l4.904 12.344zm14.633-8.774c-.547-.627-1.335-.946-2.343-.946H88.61v7.094h1.484c2.11 0 3.18-1.178 3.18-3.5 0-1.133-.276-2.024-.82-2.648zM90.45 24.03h-4.824V11.684h4.11c1.64 0 2.952.3 3.897.888a5.166 5.166 0 0 1 1.495 1.42c.748 1.045 1.128 2.33 1.128 3.817 0 1.87-.535 3.392-1.59 4.52-1.054 1.128-2.47 1.7-4.215 1.7zm-7.773 0V11.684h-2.983V24.03h2.983z" fill="#003256"/><path d="M23.755 25.907a.086.086 0 0 1 .122 0l4.903 4.903c.034.033.024.07-.022.083l-6.03 1.616a.175.175 0 0 1-.146-.04l-2.634-2.634a.086.086 0 0 1 0-.122l3.807-3.807zm-16.8 4.986c-.045-.012-.055-.05-.02-.083l4.902-4.904a.088.088 0 0 1 .122 0l3.807 3.808a.088.088 0 0 1 0 .122l-2.635 2.634a.173.173 0 0 1-.145.04l-6.03-1.617zm2.853-7.138a.086.086 0 0 1 0 .122L4.905 28.78c-.034.034-.072.024-.084-.022l-1.615-6.03a.166.166 0 0 1 .04-.146l2.633-2.634a.087.087 0 0 1 .123 0l3.808 3.807zM4.82 6.955c.013-.045.05-.055.085-.02l4.903 4.902a.086.086 0 0 1 0 .122L6 15.766a.088.088 0 0 1-.122 0l-2.634-2.635a.173.173 0 0 1-.04-.145l1.617-6.03zm7.14 2.853a.087.087 0 0 1-.123 0L6.934 4.905c-.034-.034-.024-.07.022-.084l6.03-1.615a.165.165 0 0 1 .146.04l2.635 2.633a.089.089 0 0 1 0 .123L11.96 9.81zM28.757 4.82c.046.014.056.05.022.085l-4.903 4.903a.086.086 0 0 1-.122 0L19.948 6a.086.086 0 0 1 0-.122l2.634-2.634c.034-.034.1-.05.145-.04l6.03 1.617zm-2.85 7.14a.085.085 0 0 1 0-.123l4.902-4.903c.033-.034.07-.024.083.022l1.616 6.03a.174.174 0 0 1-.04.146l-2.634 2.635a.088.088 0 0 1-.122 0l-3.807-3.808zm-2.153 2.03a.084.084 0 0 1 .122 0l3.807 3.806a.086.086 0 0 1 0 .122l-3.807 3.807a.086.086 0 0 1-.122 0l-3.807-3.807a.086.086 0 0 1 0-.122l3.807-3.807zm-2.03 9.765a.086.086 0 0 1 0 .122l-3.807 3.807a.086.086 0 0 1-.122 0l-3.807-3.807a.084.084 0 0 1 0-.122l3.806-3.807a.086.086 0 0 1 .122 0l3.807 3.807zM17.795 8.03a.087.087 0 0 1 .123 0l3.807 3.807a.086.086 0 0 1 0 .122l-3.807 3.807a.088.088 0 0 1-.122 0L13.99 11.96a.085.085 0 0 1 0-.123l3.806-3.807zM11.96 21.725a.087.087 0 0 1-.123 0L8.03 17.918a.086.086 0 0 1 0-.122l3.807-3.807a.084.084 0 0 1 .122 0l3.807 3.806a.088.088 0 0 1 0 .122l-3.808 3.807zm18.933 7.033c-.012.046-.05.056-.083.022l-4.904-4.903a.088.088 0 0 1 0-.122l3.808-3.807a.086.086 0 0 1 .122 0l2.634 2.634c.034.034.05.1.04.145l-1.617 6.03zM35.67 13.99l-3.805 3.806a.088.088 0 0 0 0 .122l3.807 3.807c.033.033.05.098.038.144L32.808 32.7a.17.17 0 0 1-.106.106L21.87 35.71a.168.168 0 0 1-.146-.038l-3.806-3.807a.088.088 0 0 0-.122 0l-3.806 3.807a.17.17 0 0 1-.145.038L3.012 32.808a.165.165 0 0 1-.105-.106L.004 21.87a.163.163 0 0 1 .04-.145l3.805-3.807a.088.088 0 0 0 0-.122L.042 13.99a.175.175 0 0 1-.04-.145L2.908 3.013a.163.163 0 0 1 .105-.106L13.845.004a.165.165 0 0 1 .145.04l3.806 3.805c.034.033.09.033.122 0L21.724.042c.034-.034.1-.05.145-.04L32.7 2.908c.046.012.093.06.106.106l2.902 10.832a.163.163 0 0 1-.04.145z" fill="#1b85dd"/></g></svg>